<svg xmlns="http://www.w3.org/2000/svg" viewBox="0 0 24 24" width="24" height="24" class="cui5-icon cui5-icon--color-undefined undefined">
  <path d="M2 12C2 6.48 6.48 2 12 2s10 4.48 10 10-4.48 10-10 10S2 17.52 2 12Zm10-8.54C7.29 3.46 3.46 7.3 3.46 12c0 4.71 3.83 8.54 8.54 8.54 4.71 0 8.54-3.83 8.54-8.54 0-4.71-3.83-8.54-8.54-8.54ZM11.28 18c0 .41.33.75.75.75.41 0 .75-.34.75-.75v-1.08c1.42-.3 2.57-1.35 2.57-2.8 0-.41-.08-.8-.28-1.16-.2-.35-.48-.62-.8-.87-.58-.45-1.1-.62-1.7-.8l-.26-.09-.47-.13-.08-.02-.44-.13c-.15-.06-.33-.16-.5-.25l-.19-.11-.04-.03c-.2-.16-.3-.28-.35-.39-.05-.1-.09-.24-.09-.46 0-.59.64-1.34 1.86-1.38h.11c.7.03 1.12.2 1.37.38.26.17.4.36.47.48.22.35.69.46 1.04.24.35-.22.46-.69.24-1.04-.15-.22-.42-.6-.92-.94-.4-.26-.91-.47-1.57-.57V6c0-.41-.34-.75-.75-.75s-.75.34-.75.75v.89c-1.42.3-2.6 1.33-2.6 2.79 0 .4.07.78.26 1.15.19.36.46.65.79.9l.02.03.03.01h.01l.02.02.07.04.23.14c.19.1.45.25.7.34.22.09.43.15.6.2l.1.01.37.1.28.1c.6.19.86.27 1.22.55.23.18.34.31.4.43.06.1.1.22.1.42 0 .62-.61 1.35-1.84 1.39h-.13c-.7-.04-1.12-.22-1.37-.38-.26-.18-.4-.36-.47-.48-.22-.36-.69-.46-1.04-.24-.35.21-.46.68-.24 1.03.15.23.42.6.92.94.4.26.93.48 1.6.58V18Zm-1.12-6.86-.4.63.4-.63Z" fill="#FFFFFF"></path>
</svg>
